<?xml version="1.0" encoding="utf-8"?>
<!-- Generator: Adobe Illustrator 21.1.0, SVG Export Plug-In . SVG Version: 6.00 Build 0)  -->
<svg version="1.1" id="Layer_1" xmlns="http://www.w3.org/2000/svg" xmlns:xlink="http://www.w3.org/1999/xlink" x="0px" y="0px"
	 viewBox="0 0 557.7 91.3" style="enable-background:new 0 0 557.7 91.3;" xml:space="preserve">
<style type="text/css">
	.st0{enable-background:new    ;}
	.st1{fill:#662479;}
</style>
<g class="st0">
	<path class="st1" d="M217.1,0v1.8l-3.2,0.3v19.6h0.1l16.4-17.3V2.1l-3.2-0.3V0h3.2h2.4h3.2v1.8l-3.2,0.3v24.8l3.2,0.3v1.7h-8.8
		v-1.7l3.2-0.3V7.5h-0.1l-16.4,17.4V27l3.2,0.3V29h-8.8v-1.7l3.2-0.3V2.1l-3.2-0.3V0h3.2h2.4H217.1z"/>
	<path class="st1" d="M241.5,1.8V0h8.8v1.8l-3.2,0.3v11.5h16.4V2.1l-3.2-0.3V0h3.2h2.4h3.2v1.8l-3.2,0.3v24.8l3.2,0.3v1.7h-8.8v-1.7
		l3.2-0.3V15.6h-16.4v11.3l3.2,0.3v1.7h-8.8v-1.7l3.2-0.3V2.1L241.5,1.8z"/>
	<path class="st1" d="M274.4,1.8V0h8.8v1.8L280,2.1v11.5h16.4V2.1l-3.2-0.3V0h3.2h2.4h3.2v1.8l-3.2,0.3v24.8l3.2,0.3v1.7h-8.8v-1.7
		l3.2-0.3V15.6H280v11.3l3.2,0.3v1.7h-8.8v-1.7l3.2-0.3V2.1L274.4,1.8z"/>
	<path class="st1" d="M306.9,27.1l2.1-0.2L319.2,0h2.2l10.1,26.9l2.2,0.2v1.7h-7.1v-1.7l2.5-0.2l-2.4-6.5h-13l-2.4,6.5l2.5,0.2v1.7
		h-7.1v-1.7H306.9z M314.6,18.4H326l-5.6-15.2h-0.1L314.6,18.4z"/>
</g>
<g class="st0">
	<path class="st1" d="M27.9,58.3H9.1v9h5.3c2.7,0,5,0.3,6.9,0.9c1.9,0.6,3.4,1.4,4.6,2.4s2.1,2.2,2.6,3.5c0.5,1.3,0.8,2.7,0.8,4.2
		c0,1.9-0.3,3.6-1,5.2c-0.7,1.6-1.7,2.9-2.9,4c-1.2,1.1-2.8,2-4.7,2.6c-1.9,0.6-4,0.9-6.3,0.9H0V51.5h27.9
		C27.9,51.5,27.9,58.3,27.9,58.3z M9.1,74.1v9.8h5.3c1.2,0,2.2-0.1,3-0.4s1.4-0.6,1.8-1.1s0.7-1,0.9-1.6c0.2-0.6,0.2-1.2,0.2-1.8
		c0-0.7-0.1-1.4-0.2-2c-0.2-0.6-0.5-1.1-0.9-1.6c-0.4-0.4-1.1-0.8-1.8-1c-0.8-0.2-1.8-0.4-3-0.4H9.1V74.1z"/>
	<path class="st1" d="M82.9,71.2c0,2.8-0.5,5.5-1.5,7.9c-1,2.5-2.4,4.6-4.1,6.4s-3.9,3.2-6.4,4.3s-5.3,1.5-8.4,1.5
		c-3.1,0-5.9-0.5-8.4-1.5s-4.7-2.4-6.5-4.3c-1.8-1.9-3.2-3.9-4.2-6.4s-1.5-5.1-1.5-7.9s0.5-5.5,1.5-7.9c1-2.5,2.4-4.6,4.2-6.4
		s4-3.2,6.5-4.2s5.3-1.5,8.4-1.5c3.1,0,5.9,0.5,8.4,1.6c2.5,1,4.7,2.5,6.4,4.3c1.8,1.8,3.2,3.9,4.1,6.4
		C82.4,65.7,82.9,68.3,82.9,71.2z M73.6,71.2c0-1.9-0.3-3.7-0.8-5.3c-0.5-1.6-1.2-2.9-2.2-4c-0.9-1.1-2.1-1.9-3.5-2.5
		s-2.9-0.9-4.7-0.9c-1.8,0-3.3,0.3-4.7,0.9s-2.5,1.4-3.5,2.5c-0.9,1.1-1.7,2.4-2.2,4c-0.5,1.6-0.8,3.3-0.8,5.3s0.3,3.7,0.8,5.3
		s1.2,2.9,2.2,4c0.9,1.1,2.1,1.9,3.5,2.5c1.4,0.6,3,0.9,4.7,0.9c1.7,0,3.3-0.3,4.7-0.9c1.4-0.6,2.5-1.4,3.5-2.5
		c0.9-1.1,1.7-2.4,2.2-4S73.6,73.1,73.6,71.2z"/>
</g>
<g class="st0">
	<path class="st1" d="M122.9,58.3h-15.7v32.6H98V51.5h24.8L122.9,58.3L122.9,58.3z"/>
</g>
<g class="st0">
	<path class="st1" d="M174.7,71.2c0,2.8-0.5,5.5-1.5,7.9c-1,2.5-2.4,4.6-4.2,6.4s-3.9,3.2-6.4,4.3c-2.5,1-5.3,1.5-8.4,1.5
		c-3.1,0-5.9-0.5-8.4-1.5s-4.7-2.4-6.5-4.3c-1.8-1.8-3.2-3.9-4.2-6.4s-1.5-5.1-1.5-7.9s0.5-5.5,1.5-7.9c1-2.5,2.4-4.6,4.2-6.4
		s4-3.2,6.5-4.2s5.3-1.5,8.4-1.5c3.1,0,5.9,0.5,8.4,1.6c2.5,1,4.7,2.5,6.4,4.3c1.8,1.8,3.2,3.9,4.2,6.4
		C174.2,65.7,174.7,68.3,174.7,71.2z M165.4,71.2c0-1.9-0.3-3.7-0.8-5.3c-0.5-1.6-1.2-2.9-2.2-4c-0.9-1.1-2.1-1.9-3.5-2.5
		s-2.9-0.9-4.7-0.9s-3.3,0.3-4.7,0.9s-2.5,1.4-3.5,2.5c-0.9,1.1-1.7,2.4-2.2,4c-0.5,1.6-0.8,3.3-0.8,5.3s0.3,3.7,0.8,5.3
		s1.2,2.9,2.2,4c0.9,1.1,2.1,1.9,3.5,2.5c1.4,0.6,3,0.9,4.7,0.9s3.3-0.3,4.7-0.9c1.4-0.6,2.5-1.4,3.5-2.5c0.9-1.1,1.7-2.4,2.2-4
		S165.4,73.1,165.4,71.2z"/>
</g>
<g class="st0">
	<path class="st1" d="M216.4,80.7c0.2,0,0.4,0,0.6,0.1c0.2,0.1,0.4,0.2,0.6,0.4l3.6,3.8c-1.6,2.1-3.6,3.6-6,4.7
		c-2.4,1.1-5.2,1.6-8.5,1.6c-3,0-5.7-0.5-8-1.5s-4.4-2.4-6-4.2c-1.6-1.8-2.9-3.9-3.8-6.4c-0.9-2.5-1.3-5.1-1.3-8
		c0-2.9,0.5-5.6,1.4-8.1c1-2.5,2.3-4.6,4-6.4s3.8-3.2,6.2-4.2s5.1-1.5,8-1.5c1.5,0,2.9,0.1,4.2,0.4s2.5,0.6,3.7,1.1
		c1.1,0.5,2.2,1,3.1,1.7c1,0.6,1.8,1.4,2.5,2.1l-3.1,4.1c-0.2,0.3-0.4,0.5-0.7,0.7s-0.6,0.3-1.1,0.3c-0.3,0-0.6-0.1-0.9-0.2
		c-0.3-0.1-0.6-0.3-0.9-0.5c-0.3-0.2-0.7-0.4-1.1-0.7s-0.8-0.5-1.4-0.7c-0.5-0.2-1.2-0.4-1.9-0.5s-1.5-0.2-2.5-0.2
		c-1.5,0-2.9,0.3-4.1,0.8c-1.3,0.6-2.3,1.4-3.2,2.4c-0.9,1.1-1.6,2.4-2.1,3.9c-0.5,1.6-0.7,3.3-0.7,5.3s0.3,3.8,0.8,5.4
		c0.5,1.6,1.3,2.9,2.2,4c0.9,1.1,2,1.9,3.3,2.4c1.3,0.6,2.6,0.8,4.1,0.8c0.8,0,1.6,0,2.3-0.1c0.7-0.1,1.3-0.2,1.9-0.4
		c0.6-0.2,1.2-0.4,1.7-0.8c0.5-0.3,1.1-0.7,1.6-1.2c0.2-0.2,0.5-0.3,0.7-0.4C215.8,80.6,216.1,80.7,216.4,80.7z"/>
</g>
<g class="st0">
	<path class="st1" d="M269,51.5v39.4h-9.2V58.3h-8.6c-0.3,4.8-0.7,9-1.1,12.5c-0.5,3.5-1.1,6.5-1.8,8.9c-0.7,2.4-1.5,4.4-2.3,5.9
		s-1.8,2.7-2.8,3.5s-2.1,1.4-3.3,1.7s-2.4,0.4-3.7,0.4c-1.6,0-2.7-0.1-3.4-0.4s-1-0.7-1-1.2v-5.5h2.3c0.4,0,0.8,0,1.2-0.1
		c0.4-0.1,0.9-0.3,1.3-0.6c0.5-0.3,0.9-0.8,1.3-1.4c0.4-0.6,0.9-1.4,1.3-2.5c0.4-1.1,0.8-2.4,1.2-4c0.4-1.6,0.7-3.5,1-5.8
		s0.6-4.9,0.8-7.9c0.2-3,0.4-6.5,0.5-10.4L269,51.5L269,51.5z"/>
	<path class="st1" d="M325.1,71.2c0,2.8-0.5,5.5-1.5,7.9c-1,2.4-2.4,4.6-4.1,6.4s-3.9,3.2-6.4,4.3c-2.5,1-5.3,1.5-8.4,1.5
		s-5.9-0.5-8.4-1.5s-4.7-2.4-6.5-4.3c-1.8-1.9-3.2-3.9-4.2-6.4s-1.5-5.1-1.5-7.9s0.5-5.5,1.5-7.9c1-2.5,2.4-4.6,4.2-6.4
		c1.8-1.8,4-3.2,6.5-4.2s5.3-1.5,8.4-1.5s5.9,0.5,8.4,1.6c2.5,1,4.7,2.5,6.4,4.3c1.8,1.8,3.2,3.9,4.1,6.4
		C324.5,66,325.1,68.3,325.1,71.2z M315.7,71.2c0-1.9-0.3-3.7-0.8-5.3c-0.5-1.6-1.2-2.9-2.2-4c-0.9-1.1-2.1-1.9-3.5-2.5
		s-2.9-0.9-4.7-0.9c-1.8,0-3.3,0.3-4.7,0.9c-1.4,0.6-2.5,1.4-3.5,2.5c-0.9,1.1-1.7,2.4-2.2,4c-0.5,1.6-0.8,3.3-0.8,5.3
		s0.3,3.7,0.8,5.3s1.2,2.9,2.2,4c0.9,1.1,2.1,1.9,3.5,2.5c1.4,0.6,3,0.9,4.7,0.9s3.3-0.3,4.7-0.9c1.4-0.6,2.5-1.4,3.5-2.5
		c0.9-1.1,1.7-2.4,2.2-4C315.5,74.9,315.7,73.1,315.7,71.2z"/>
	<path class="st1" d="M340.2,90.9V51.5h14.5c2.7,0,5,0.3,6.9,0.8s3.5,1.2,4.7,2.1s2.1,2,2.6,3.4c0.6,1.3,0.8,2.8,0.8,4.4
		c0,0.9-0.1,1.7-0.4,2.6c-0.3,0.8-0.6,1.6-1.2,2.3c-0.5,0.7-1.2,1.4-2.1,2c-0.8,0.6-1.9,1.1-3.1,1.5c2.6,0.6,4.5,1.7,5.8,3.1
		c1.2,1.4,1.9,3.2,1.9,5.4c0,1.7-0.3,3.2-1,4.7c-0.6,1.4-1.6,2.7-2.9,3.8s-2.8,1.9-4.6,2.5c-1.8,0.6-3.9,0.9-6.3,0.9h-15.6V90.9z
		 M349.3,68.1h4.8c1,0,1.9-0.1,2.7-0.2c0.8-0.1,1.5-0.4,2.1-0.8c0.6-0.4,1-0.9,1.3-1.5c0.3-0.6,0.4-1.4,0.4-2.4
		c0-0.9-0.1-1.7-0.4-2.3s-0.6-1.1-1.1-1.5s-1.1-0.6-1.9-0.8s-1.6-0.2-2.7-0.2h-5.4v9.7H349.3z M349.3,74.2V84h6.4
		c1.2,0,2.2-0.2,3-0.5s1.4-0.7,1.8-1.2s0.7-1,0.9-1.6c0.2-0.6,0.2-1.2,0.2-1.9c0-0.7-0.1-1.4-0.3-1.9c-0.2-0.6-0.5-1.1-1-1.5
		c-0.5-0.4-1.1-0.7-1.8-0.9c-0.8-0.2-1.7-0.3-2.9-0.3H349.3z"/>
	<path class="st1" d="M412.7,80.7c0.2,0,0.4,0,0.6,0.1c0.2,0.1,0.4,0.2,0.6,0.4l3.6,3.8c-1.6,2.1-3.6,3.6-6,4.7
		c-2.4,1.1-5.2,1.6-8.5,1.6c-3,0-5.7-0.5-8-1.5c-2.4-1-4.4-2.4-6-4.2c-1.6-1.8-2.9-3.9-3.8-6.4s-1.3-5.1-1.3-8
		c0-2.9,0.5-5.6,1.4-8.1c0.9-2.5,2.3-4.6,4-6.4s3.8-3.2,6.2-4.2c2.4-1,5.1-1.5,8-1.5c1.5,0,2.9,0.1,4.2,0.4c1.3,0.3,2.5,0.6,3.7,1.1
		c1.1,0.5,2.2,1,3.1,1.7c1,0.6,1.8,1.4,2.5,2.1l-3.1,4.1c-0.2,0.3-0.4,0.5-0.7,0.7c-0.3,0.2-0.6,0.3-1.1,0.3c-0.3,0-0.6-0.1-0.9-0.2
		s-0.6-0.3-0.9-0.5s-0.7-0.4-1.1-0.7c-0.4-0.2-0.8-0.5-1.4-0.7c-0.5-0.2-1.2-0.4-1.9-0.5c-0.7-0.1-1.5-0.2-2.5-0.2
		c-1.5,0-2.9,0.3-4.2,0.8c-1.3,0.6-2.3,1.4-3.2,2.4s-1.6,2.4-2.1,3.9c-0.5,1.6-0.7,3.3-0.7,5.3s0.3,3.8,0.8,5.4
		c0.5,1.6,1.3,2.9,2.2,4c0.9,1.1,2,1.9,3.3,2.4c1.3,0.6,2.6,0.8,4.1,0.8c0.8,0,1.6,0,2.3-0.1c0.7-0.1,1.3-0.2,1.9-0.4
		c0.6-0.2,1.2-0.4,1.7-0.8c0.5-0.4,1.1-0.7,1.6-1.2c0.2-0.2,0.5-0.3,0.7-0.4C412,80.6,412.4,80.7,412.7,80.7z"/>
	<path class="st1" d="M440.4,67.4h3.4c0.7,0,1.3-0.1,1.8-0.4s1-0.7,1.4-1.4l7.1-11.9c0.4-0.7,0.9-1.2,1.5-1.7
		c0.6-0.4,1.3-0.6,2.2-0.6h7.8L456,66.9c-0.5,0.7-1,1.3-1.6,1.8s-1.3,0.9-2.1,1.1c1.2,0.3,2.2,0.9,3.1,1.6c0.8,0.7,1.6,1.8,2.4,3.1
		l8.8,16.2h-8.4c-0.8,0-1.5-0.2-2.1-0.6c-0.6-0.4-1.1-1.1-1.5-1.9l-6.5-12.3c-0.4-0.8-0.9-1.3-1.5-1.6c-0.5-0.3-1.2-0.4-2.1-0.4
		h-4.1v16.8h-9.1V51.5h9.1L440.4,67.4L440.4,67.4z"/>
	<path class="st1" d="M515.1,90.9H508c-0.8,0-1.4-0.2-1.9-0.6c-0.5-0.4-0.9-0.8-1.1-1.4l-2.3-6.9h-15l-2.3,6.9
		c-0.2,0.5-0.6,1-1.1,1.4c-0.5,0.4-1.1,0.6-1.9,0.6h-7.1l15.2-39.4h9.4L515.1,90.9z M489.8,75.8h10.8L497,65
		c-0.3-0.7-0.6-1.5-0.9-2.4s-0.6-1.9-0.9-3c-0.3,1.1-0.6,2.1-0.9,3.1c-0.3,0.9-0.6,1.7-0.9,2.4L489.8,75.8z"/>
	<path class="st1" d="M548.5,90.9V75.1h-2.8c-0.8,0-1.6,0.2-2.3,0.6c-0.7,0.4-1.3,1.1-1.9,2.1l-5.5,10c-0.6,0.9-1.3,1.7-2.2,2.2
		s-2.1,0.8-3.4,0.8h-6.9l8.1-13.4c0.6-0.9,1.2-1.7,2-2.4c0.7-0.7,1.6-1.2,2.6-1.6c-1.4-0.4-2.6-1-3.6-1.6c-1-0.7-1.8-1.5-2.5-2.3
		c-0.7-0.9-1.1-1.8-1.5-2.9c-0.4-1.1-0.5-2.1-0.5-3.3c0-1.7,0.3-3.3,1-4.7c0.7-1.4,1.7-2.7,2.9-3.7c1.3-1.1,2.8-1.9,4.7-2.5
		s4-0.9,6.3-0.9h14.7v39.4H548.5z M537,63.3c0,0.7,0.1,1.4,0.2,2c0.1,0.6,0.5,1.1,0.9,1.6c0.4,0.4,1,0.8,1.8,1s1.8,0.4,3,0.4h5.6
		v-9.9h-5.6c-1.2,0-2.2,0.1-3,0.4s-1.4,0.6-1.8,1.1c-0.4,0.5-0.7,1-0.9,1.6C537.1,62,537,62.6,537,63.3z"/>
</g>
</svg>
