<?xml version="1.0" encoding="utf-8"?>
<!-- Generator: Adobe Illustrator 21.1.0, SVG Export Plug-In . SVG Version: 6.00 Build 0)  -->
<svg version="1.1" id="图层_1" xmlns="http://www.w3.org/2000/svg" xmlns:xlink="http://www.w3.org/1999/xlink" x="0px" y="0px"
	 viewBox="0 0 34 26" style="enable-background:new 0 0 34 26;" xml:space="preserve">
<style type="text/css">
	.st0{fill:#FFFFFF;}
</style>
<path class="st0" d="M28.3,0H5.7C2.5,0,0,2.6,0,5.8v14.4C0,23.4,2.5,26,5.7,26h22.4c3.2,0,5.7-2.6,5.9-5.8V5.8C34,2.6,31.5,0,28.3,0
	z M31.8,21.2l-6.9-8.6l7-4.2v12C31.9,20.7,31.8,20.9,31.8,21.2z M5.7,2.4h22.6c1.8,0,3.4,1.6,3.6,3.4L19,13.3
	c-1.1,0.6-3.2,0.6-4.4,0L2.1,6C2.1,4.1,3.8,2.4,5.7,2.4z M2.2,21c0-0.2-0.1-0.4-0.1-0.6V8.5L9,12.6L2.2,21z M5.7,24.1
	c-0.9,0-1.8-0.4-2.4-1l7.5-9.4l2.7,1.6c1.1,0.6,2.1,0.9,3.4,0.9s2.5-0.2,3.4-0.9l2.7-1.6l7.6,9.5c-0.6,0.6-1.5,0.9-2.3,0.9H5.7z"/>
</svg>
