<svg xmlns="http://www.w3.org/2000/svg" xmlns:xlink="http://www.w3.org/1999/xlink" width="32" height="32" viewBox="0 0 32 32">
  <metadata><?xpacket begin="﻿" id="W5M0MpCehiHzreSzNTczkc9d"?>
<x:xmpmeta xmlns:x="adobe:ns:meta/" x:xmptk="Adobe XMP Core 5.6-c138 79.159824, 2016/09/14-01:09:01        ">
   <rdf:RDF xmlns:rdf="http://www.w3.org/1999/02/22-rdf-syntax-ns#">
      <rdf:Description rdf:about=""/>
   </rdf:RDF>
</x:xmpmeta>
                                                                                                    
                                                                                                    
                                                                                                    
                                                                                                    
                                                                                                    
                                                                                                    
                                                                                                    
                                                                                                    
                                                                                                    
                                                                                                    
                                                                                                    
                                                                                                    
                                                                                                    
                                                                                                    
                                                                                                    
                                                                                                    
                                                                                                    
                                                                                                    
                                                                                                    
                                                                                                    
                           
<?xpacket end="w"?></metadata>
<defs>
    <style>
      .cls-1 {
        fill: #da3d7b;
        fill-rule: evenodd;
        filter: url(#filter);
      }
    </style>
    <filter id="filter" x="1952" y="2973" width="32" height="32" filterUnits="userSpaceOnUse">
      <feFlood result="flood" flood-color="#974cad"/>
      <feComposite result="composite" operator="in" in2="SourceGraphic"/>
      <feBlend result="blend" in2="SourceGraphic"/>
    </filter>
  </defs>
  <path id="_8" data-name="8" class="cls-1" d="M1982,2975h2v-2h-32v2h2v19a3.816,3.816,0,0,0,4,4h6l-4,7,3.01-.01L1967,2998h2l3.99,6.99L1976,3005l-4-7h6a3.816,3.816,0,0,0,4-4v-19Zm-1.99-.01h-24.02c0,1.27.01,19.01,0.01,19.01a1.869,1.869,0,0,0,2,2h20a1.869,1.869,0,0,0,2-2S1980.01,2977.01,1980.01,2974.99ZM1974,2993a1,1,0,0,1-1-1v-9a1,1,0,0,1,2,0v9A1,1,0,0,1,1974,2993Zm-6,0a1,1,0,0,1-1-1v-12a1,1,0,0,1,2,0v12A1,1,0,0,1,1968,2993Zm-6,0a1,1,0,0,1-1-1v-4a1,1,0,0,1,2,0v4A1,1,0,0,1,1962,2993Z" transform="translate(-1952 -2973)"/>
</svg>
