<svg xmlns="http://www.w3.org/2000/svg" xmlns:xlink="http://www.w3.org/1999/xlink" width="32" height="32" viewBox="0 0 32 32">
  <metadata><?xpacket begin="﻿" id="W5M0MpCehiHzreSzNTczkc9d"?>
<x:xmpmeta xmlns:x="adobe:ns:meta/" x:xmptk="Adobe XMP Core 5.6-c138 79.159824, 2016/09/14-01:09:01        ">
   <rdf:RDF xmlns:rdf="http://www.w3.org/1999/02/22-rdf-syntax-ns#">
      <rdf:Description rdf:about=""/>
   </rdf:RDF>
</x:xmpmeta>
                                                                                                    
                                                                                                    
                                                                                                    
                                                                                                    
                                                                                                    
                                                                                                    
                                                                                                    
                                                                                                    
                                                                                                    
                                                                                                    
                                                                                                    
                                                                                                    
                                                                                                    
                                                                                                    
                                                                                                    
                                                                                                    
                                                                                                    
                                                                                                    
                                                                                                    
                                                                                                    
                           
<?xpacket end="w"?></metadata>
<defs>
    <style>
      .cls-1 {
        fill: #e53a72;
        fill-rule: evenodd;
        filter: url(#filter);
      }
    </style>
    <filter id="filter" x="2052" y="2973" width="32" height="32" filterUnits="userSpaceOnUse">
      <feFlood result="flood" flood-color="#974cad"/>
      <feComposite result="composite" operator="in" in2="SourceGraphic"/>
      <feBlend result="blend" in2="SourceGraphic"/>
    </filter>
  </defs>
  <path id="_7" data-name="7" class="cls-1" d="M2080,3002s-5.39,1.5-11.01,3h-2.02c-5.58-1.5-10.97-3-10.97-3-2.12-.69-4-1.79-4-4v-21a4,4,0,0,1,4-4s5.96,1.66,10.97,3c0.66,0,1.32.03,1.98,0,5.26-1.41,11.05-3,11.05-3a4,4,0,0,1,4,4v21C2084,3000.21,2082.05,3001.47,2080,3002Zm-24-27a2.006,2.006,0,0,0-2,2v21c0,1.1.86,1.69,2,2,0,0,5.54,1.53,11,3v-25Zm26,2a2.006,2.006,0,0,0-2-2l-11,3v24.98c5.56-1.47,11-2.98,11-2.98,1.07-.34,2-0.9,2-2v-21Z" transform="translate(-2052 -2973)"/>
</svg>
