<svg xmlns="http://www.w3.org/2000/svg" width="413.468" height="67.531" viewBox="0 0 413.468 67.531">
  <metadata><?xpacket begin="﻿" id="W5M0MpCehiHzreSzNTczkc9d"?>
<x:xmpmeta xmlns:x="adobe:ns:meta/" x:xmptk="Adobe XMP Core 5.6-c138 79.159824, 2016/09/14-01:09:01        ">
   <rdf:RDF xmlns:rdf="http://www.w3.org/1999/02/22-rdf-syntax-ns#">
      <rdf:Description rdf:about=""/>
   </rdf:RDF>
</x:xmpmeta>
                                                                                                    
                                                                                                    
                                                                                                    
                                                                                                    
                                                                                                    
                                                                                                    
                                                                                                    
                                                                                                    
                                                                                                    
                                                                                                    
                                                                                                    
                                                                                                    
                                                                                                    
                                                                                                    
                                                                                                    
                                                                                                    
                                                                                                    
                                                                                                    
                                                                                                    
                                                                                                    
                           
<?xpacket end="w"?></metadata>
<defs>
    <style>
      .cls-1 {
        fill: #662479;
        fill-rule: evenodd;
      }
    </style>
  </defs>
  <path id="Інна_Богословська" data-name="Інна  Богословська" class="cls-1" d="M642.05,43.6V61.958l-2.379.19v1.289h6.51V62.148l-2.379-.19V43.6l2.379-.19v-1.3h-6.51v1.3Zm10.653,0V61.958l-2.379.19v1.289h6.5V62.148l-2.379-.19V53.623h12.086v8.335l-2.379.19v1.289h6.5V62.148l-2.379-.19V43.6l2.379-.19v-1.3h-6.5v1.3l2.379,0.19v8.525H654.44V43.6l2.379-.19v-1.3h-6.5v1.3Zm24.228,0V61.958l-2.379.19v1.289h6.5V62.148l-2.379-.19V53.623h12.085v8.335l-2.379.19v1.289h6.5V62.148l-2.379-.19V43.6l2.379-.19v-1.3h-6.5v1.3l2.379,0.19v8.525H678.668V43.6l2.379-.19v-1.3h-6.5v1.3Zm21.615,19.834h5.225V62.148L701.917,62l1.767-4.775h9.545L714.981,62l-1.854.147v1.289h5.24V62.148l-1.591-.117L709.3,42.109h-1.649l-7.546,19.922-1.562.117v1.289Zm9.9-19.058h0.087l4.131,11.279h-8.393ZM500.165,80.161H479.6V109.3H490.24a14.814,14.814,0,0,0,4.664-.68,10,10,0,0,0,3.467-1.91,8.163,8.163,0,0,0,2.162-2.96,9.544,9.544,0,0,0,.748-3.83,8.135,8.135,0,0,0-.6-3.09,6.622,6.622,0,0,0-1.913-2.58,9.781,9.781,0,0,0-3.418-1.77,17.229,17.229,0,0,0-5.112-.66h-3.905v-6.6h13.83v-5.06Zm-9.925,16.76a7.449,7.449,0,0,1,2.193.27,3.239,3.239,0,0,1,1.345.76,2.549,2.549,0,0,1,.667,1.17,5.774,5.774,0,0,1,.18,1.48,4.926,4.926,0,0,1-.18,1.34,2.7,2.7,0,0,1-.667,1.15,3.368,3.368,0,0,1-1.345.81,6.751,6.751,0,0,1-2.193.3h-3.905v-7.28h3.905Zm49.392-8.06a14.059,14.059,0,0,0-3.059-4.72,14.22,14.22,0,0,0-4.753-3.15,15.988,15.988,0,0,0-6.167-1.15,16.187,16.187,0,0,0-6.178,1.14,14.19,14.19,0,0,0-4.773,3.14,13.993,13.993,0,0,0-3.069,4.72,16.461,16.461,0,0,0,0,11.76,13.885,13.885,0,0,0,7.842,7.88,17.28,17.28,0,0,0,12.345,0,14.015,14.015,0,0,0,4.753-3.15,14.168,14.168,0,0,0,3.059-4.73A16.407,16.407,0,0,0,539.632,88.861Zm-6.367,9.77a8.237,8.237,0,0,1-1.6,2.93,6.816,6.816,0,0,1-2.561,1.83,8.909,8.909,0,0,1-3.447.63,9.037,9.037,0,0,1-3.478-.63,6.812,6.812,0,0,1-2.571-1.83,8.253,8.253,0,0,1-1.6-2.93,13.908,13.908,0,0,1,0-7.8,8.256,8.256,0,0,1,1.6-2.93,6.912,6.912,0,0,1,2.571-1.84,8.915,8.915,0,0,1,3.478-.64,8.789,8.789,0,0,1,3.447.64,6.916,6.916,0,0,1,2.561,1.84,8.241,8.241,0,0,1,1.6,2.93A13.908,13.908,0,0,1,533.265,98.631Zm36.888-18.47h-18.3V109.3h6.776V85.181h11.519v-5.02Zm37.2,8.7a14.09,14.09,0,0,0-3.059-4.72,14.24,14.24,0,0,0-4.753-3.15,16,16,0,0,0-6.168-1.15,16.187,16.187,0,0,0-6.178,1.14,14.19,14.19,0,0,0-4.773,3.14,13.993,13.993,0,0,0-3.069,4.72,16.461,16.461,0,0,0,0,11.76,13.885,13.885,0,0,0,7.842,7.88,17.283,17.283,0,0,0,12.346,0,14.035,14.035,0,0,0,4.753-3.15,14.2,14.2,0,0,0,3.059-4.73A16.407,16.407,0,0,0,607.349,88.861Zm-6.368,9.77a8.237,8.237,0,0,1-1.6,2.93,6.816,6.816,0,0,1-2.561,1.83,8.9,8.9,0,0,1-3.447.63,9.044,9.044,0,0,1-3.478-.63,6.8,6.8,0,0,1-2.57-1.83,8.239,8.239,0,0,1-1.605-2.93,13.908,13.908,0,0,1,0-7.8,8.243,8.243,0,0,1,1.605-2.93,6.9,6.9,0,0,1,2.57-1.84,8.922,8.922,0,0,1,3.478-.64,8.786,8.786,0,0,1,3.447.64,6.916,6.916,0,0,1,2.561,1.84,8.241,8.241,0,0,1,1.6,2.93A13.908,13.908,0,0,1,600.981,98.631Zm37.585,3.26a2.393,2.393,0,0,0-.518.33,7.763,7.763,0,0,1-1.176.89,5.77,5.77,0,0,1-1.235.56,7.6,7.6,0,0,1-1.415.3,14.262,14.262,0,0,1-1.674.09,7.277,7.277,0,0,1-2.989-.62,7.028,7.028,0,0,1-2.442-1.81,8.749,8.749,0,0,1-1.654-2.93,12.044,12.044,0,0,1-.607-3.98,13.054,13.054,0,0,1,.548-3.95,8.376,8.376,0,0,1,1.554-2.92,6.677,6.677,0,0,1,2.391-1.81,7.409,7.409,0,0,1,3.059-.62,9.372,9.372,0,0,1,1.844.16,8.447,8.447,0,0,1,1.375.39,6.051,6.051,0,0,1,1.016.5q0.429,0.27.787,0.5a7.333,7.333,0,0,0,.678.39,1.484,1.484,0,0,0,.677.16,1.343,1.343,0,0,0,.837-0.23,2.892,2.892,0,0,0,.519-0.51l2.271-3.06a12.159,12.159,0,0,0-1.873-1.56,12.319,12.319,0,0,0-2.312-1.23,15.023,15.023,0,0,0-2.7-.8,15.651,15.651,0,0,0-3.079-.29,15.3,15.3,0,0,0-5.879,1.1,13.368,13.368,0,0,0-4.583,3.08,13.905,13.905,0,0,0-2.969,4.71,16.45,16.45,0,0,0-1.057,5.99,17.485,17.485,0,0,0,.977,5.93,13.747,13.747,0,0,0,2.8,4.72,12.816,12.816,0,0,0,4.444,3.12,14.84,14.84,0,0,0,5.928,1.13,15.332,15.332,0,0,0,6.248-1.17,11.1,11.1,0,0,0,4.394-3.47l-2.67-2.82a1.3,1.3,0,0,0-.459-0.31A1.334,1.334,0,0,0,638.566,101.891Zm21.363-21.73q-0.1,4.36-.339,7.72t-0.568,5.87q-0.329,2.51-.737,4.27a23.321,23.321,0,0,1-.857,2.94,7.773,7.773,0,0,1-.937,1.84,4.257,4.257,0,0,1-.986,1,2.458,2.458,0,0,1-.977.42,5.592,5.592,0,0,1-.916.08h-1.674v4.1a0.994,0.994,0,0,0,.737.91,7.051,7.051,0,0,0,2.491.31,11.483,11.483,0,0,0,2.74-.32,6.051,6.051,0,0,0,2.431-1.25,9.459,9.459,0,0,0,2.093-2.61,19.126,19.126,0,0,0,1.714-4.4,53.778,53.778,0,0,0,1.295-6.61q0.548-3.89.847-9.25H672.7V109.3h6.776V80.161h-19.55Zm59.755,8.7a14.075,14.075,0,0,0-3.059-4.72,14.23,14.23,0,0,0-4.753-3.15,15.99,15.99,0,0,0-6.168-1.15,16.187,16.187,0,0,0-6.178,1.14,14.176,14.176,0,0,0-4.772,3.14,13.978,13.978,0,0,0-3.069,4.72,16.447,16.447,0,0,0,0,11.76,13.887,13.887,0,0,0,7.841,7.88,17.283,17.283,0,0,0,12.346,0,14.025,14.025,0,0,0,4.753-3.15,14.184,14.184,0,0,0,3.059-4.73A16.407,16.407,0,0,0,719.684,88.861Zm-6.367,9.77a8.253,8.253,0,0,1-1.6,2.93,6.832,6.832,0,0,1-2.561,1.83,8.91,8.91,0,0,1-3.448.63,9.035,9.035,0,0,1-3.477-.63,6.8,6.8,0,0,1-2.571-1.83,8.222,8.222,0,0,1-1.6-2.93,13.908,13.908,0,0,1,0-7.8,8.225,8.225,0,0,1,1.6-2.93,6.9,6.9,0,0,1,2.571-1.84,8.914,8.914,0,0,1,3.477-.64,8.791,8.791,0,0,1,3.448.64,6.932,6.932,0,0,1,2.561,1.84,8.256,8.256,0,0,1,1.6,2.93A13.908,13.908,0,0,1,713.317,98.631Zm30.191,10.67a14.8,14.8,0,0,0,4.643-.67,9.959,9.959,0,0,0,3.418-1.86,7.929,7.929,0,0,0,2.1-2.79,8.364,8.364,0,0,0,.717-3.46,5.892,5.892,0,0,0-1.375-4.03,7.993,7.993,0,0,0-4.245-2.27,9.881,9.881,0,0,0,2.252-1.13,6.569,6.569,0,0,0,1.535-1.45,5.575,5.575,0,0,0,.876-1.71,6.41,6.41,0,0,0,.279-1.89,8.411,8.411,0,0,0-.607-3.26,5.994,5.994,0,0,0-1.943-2.48,9.755,9.755,0,0,0-3.448-1.58,20.253,20.253,0,0,0-5.122-.56H731.91V109.3h11.6Zm-0.159-12.36a7.811,7.811,0,0,1,2.112.24,3.5,3.5,0,0,1,1.345.68,2.387,2.387,0,0,1,.718,1.08,4.638,4.638,0,0,1,.209,1.44,5.41,5.41,0,0,1-.179,1.38,2.961,2.961,0,0,1-.658,1.22,3.457,3.457,0,0,1-1.325.88,5.926,5.926,0,0,1-2.182.34h-4.743v-7.26h4.7Zm-4.7-11.72h3.945a9.333,9.333,0,0,1,1.963.18,3.332,3.332,0,0,1,1.365.6,2.48,2.48,0,0,1,.8,1.11,4.985,4.985,0,0,1,.259,1.73,4.14,4.14,0,0,1-.329,1.76,2.562,2.562,0,0,1-.957,1.1,4.161,4.161,0,0,1-1.524.56,11.5,11.5,0,0,1-2.013.16h-3.507v-7.2Zm46.114,16.67a2.375,2.375,0,0,0-.519.33,7.758,7.758,0,0,1-1.175.89,5.778,5.778,0,0,1-1.236.56,7.58,7.58,0,0,1-1.415.3,14.262,14.262,0,0,1-1.674.09,7.28,7.28,0,0,1-2.989-.62,7.015,7.015,0,0,1-2.441-1.81,8.732,8.732,0,0,1-1.654-2.93,12.017,12.017,0,0,1-.608-3.98,13.054,13.054,0,0,1,.548-3.95,8.376,8.376,0,0,1,1.554-2.92,6.672,6.672,0,0,1,2.392-1.81,7.405,7.405,0,0,1,3.059-.62,9.361,9.361,0,0,1,1.843.16,8.418,8.418,0,0,1,1.375.39,6.013,6.013,0,0,1,1.016.5q0.429,0.27.788,0.5a7.458,7.458,0,0,0,.677.39,1.491,1.491,0,0,0,.678.16,1.347,1.347,0,0,0,.837-0.23,2.886,2.886,0,0,0,.518-0.51l2.272-3.06a12.168,12.168,0,0,0-1.874-1.56,12.31,12.31,0,0,0-2.311-1.23,15.01,15.01,0,0,0-2.7-.8,15.641,15.641,0,0,0-3.078-.29,15.292,15.292,0,0,0-5.879,1.1,13.372,13.372,0,0,0-4.584,3.08,13.921,13.921,0,0,0-2.969,4.71,16.471,16.471,0,0,0-1.056,5.99,17.485,17.485,0,0,0,.976,5.93,13.747,13.747,0,0,0,2.8,4.72,12.826,12.826,0,0,0,4.444,3.12,14.842,14.842,0,0,0,5.929,1.13,15.327,15.327,0,0,0,6.247-1.17,11.1,11.1,0,0,0,4.4-3.47l-2.671-2.82a1.3,1.3,0,0,0-.458-0.31A1.334,1.334,0,0,0,784.76,101.891Zm14.308-21.73V109.3h10.641a14.814,14.814,0,0,0,4.664-.68,10,10,0,0,0,3.467-1.91,8.163,8.163,0,0,0,2.162-2.96,9.562,9.562,0,0,0,.748-3.83,8.135,8.135,0,0,0-.6-3.09,6.632,6.632,0,0,0-1.913-2.58,9.79,9.79,0,0,0-3.418-1.77,17.229,17.229,0,0,0-5.112-.66H805.8V80.161h-6.735Zm10.641,16.76a7.437,7.437,0,0,1,2.192.27,3.243,3.243,0,0,1,1.346.76,2.549,2.549,0,0,1,.667,1.17,5.774,5.774,0,0,1,.18,1.48,4.926,4.926,0,0,1-.18,1.34,2.7,2.7,0,0,1-.667,1.15,3.372,3.372,0,0,1-1.346.81,6.74,6.74,0,0,1-2.192.3H805.8v-7.28h3.906Zm28.278-16.76h-6.736V109.3h6.736V96.9h3.029a3.582,3.582,0,0,1,1.515.28,2.562,2.562,0,0,1,1.076,1.16l4.823,9.1a4.654,4.654,0,0,0,1.135,1.38,2.4,2.4,0,0,0,1.515.48h6.158l-6.5-12.02a8.717,8.717,0,0,0-1.754-2.29,5.539,5.539,0,0,0-2.271-1.19,6.138,6.138,0,0,0,1.534-.85,4.9,4.9,0,0,0,1.2-1.33l7.074-11.46h-5.779a2.63,2.63,0,0,0-1.594.48,4.188,4.188,0,0,0-1.116,1.24l-5.261,8.78a2.677,2.677,0,0,1-1.007,1.02,2.831,2.831,0,0,1-1.305.28h-2.471v-11.8Zm43.822,0h-6.895l-11.24,29.14h5.262a2.188,2.188,0,0,0,1.4-.45,2.438,2.438,0,0,0,.788-1.01l1.713-5.08h11.041l1.714,5.08a2.6,2.6,0,0,0,.817,1.05,2.273,2.273,0,0,0,1.415.41h5.221Zm-4.743,10.06q0.3-.76.628-1.8t0.648-2.26q0.337,1.2.677,2.23t0.638,1.79l2.67,7.98H874.4Z" transform="translate(-479.594 -42.094)"/>
</svg>
