<?xml version="1.0" encoding="utf-8"?>
<!-- Generator: Adobe Illustrator 21.1.0, SVG Export Plug-In . SVG Version: 6.00 Build 0)  -->
<svg version="1.1" id="Layer_1" xmlns="http://www.w3.org/2000/svg" xmlns:xlink="http://www.w3.org/1999/xlink" x="0px" y="0px"
	 viewBox="0 0 501.5 91.4" style="enable-background:new 0 0 501.5 91.4;" xml:space="preserve">
<style type="text/css">
	.st0{enable-background:new    ;}
	.st1{fill:#662479;}
</style>
<title>ib_logo_en</title>
<g class="st0">
	<path class="st1" d="M187.5,1.8V0h8.8v1.8l-3.2,0.3v24.8l3.2,0.3v1.7h-8.8v-1.7l3.2-0.3V2.1L187.5,1.8z"/>
	<path class="st1" d="M229.6,0v1.8l-3.2,0.3v26.8H224L207.6,4.1h-0.1v22.8l3.2,0.3v1.7h-8.8v-1.7l3.2-0.3V2.1l-3.2-0.3V0h3.2h2.4
		l16.4,24.8h0.1V2.1l-3.2-0.3V0h5.6H229.6z"/>
</g>
<g class="st0">
	<path class="st1" d="M262.5,0v1.8l-3.2,0.3v26.8h-2.4L240.5,4.1h-0.1v22.8l3.2,0.3v1.7h-8.8v-1.7l3.2-0.3V2.1l-3.2-0.3V0h3.2h2.4
		l16.4,24.8h0.1V2.1l-3.2-0.3V0h5.6H262.5z"/>
</g>
<g class="st0">
	<path class="st1" d="M265.6,27.1l2.1-0.2L277.9,0h2.2l10.1,26.9l2.2,0.2v1.7h-7.1v-1.7l2.5-0.2l-2.4-6.5h-13l-2.4,6.5l2.5,0.2v1.7
		h-7.1v-1.7H265.6z M273.4,18.4h11.4l-5.6-15.3h-0.1L273.4,18.4z"/>
</g>
<g class="st0">
	<path class="st1" d="M0,90.9V51.5h14.5c2.7,0,5,0.3,6.9,0.8s3.5,1.2,4.7,2.1s2.1,2,2.6,3.4c0.5,1.4,0.8,2.8,0.8,4.4
		c0,0.9-0.1,1.7-0.4,2.6c-0.3,0.8-0.6,1.6-1.2,2.3c-0.5,0.7-1.2,1.4-2.1,2c-0.8,0.6-1.9,1.1-3.1,1.5c2.6,0.6,4.5,1.7,5.8,3.1
		c1.2,1.4,1.9,3.2,1.9,5.4c0,1.7-0.3,3.2-1,4.7c-0.6,1.4-1.6,2.7-2.9,3.8c-1.3,1.1-2.8,1.9-4.6,2.5C20.1,90.7,18,91,15.6,91H0V90.9z
		 M9.1,68.1h4.8c1,0,1.9-0.1,2.7-0.2c0.8-0.1,1.5-0.4,2.1-0.8s1-0.9,1.3-1.5s0.4-1.4,0.4-2.4c0-0.9-0.1-1.7-0.4-2.3
		c-0.2-0.6-0.6-1.1-1.1-1.5s-1.1-0.6-1.9-0.8c-0.7-0.2-1.6-0.2-2.7-0.2H8.9v9.7H9.1z M9.1,74.2V84h6.4c1.2,0,2.2-0.2,3-0.5
		s1.4-0.7,1.8-1.2s0.7-1,0.9-1.6c0.2-0.6,0.2-1.2,0.2-1.9c0-0.7-0.1-1.4-0.3-1.9c-0.2-0.6-0.5-1.1-1-1.5s-1.1-0.7-1.8-0.9
		c-0.8-0.2-1.7-0.3-2.9-0.3H9.1z"/>
	<path class="st1" d="M84.6,71.2c0,2.8-0.5,5.5-1.5,7.9c-1,2.5-2.4,4.6-4.1,6.4s-3.9,3.2-6.4,4.3s-5.4,1.5-8.4,1.5
		c-3.1,0-5.9-0.5-8.4-1.5s-4.7-2.4-6.5-4.3s-3.2-3.9-4.2-6.4s-1.5-5.1-1.5-7.9s0.5-5.5,1.5-7.9c1-2.5,2.4-4.6,4.2-6.4s4-3.2,6.5-4.2
		s5.3-1.5,8.4-1.5c3.1,0,5.9,0.5,8.4,1.6c2.5,1,4.7,2.5,6.4,4.3c1.8,1.8,3.2,3.9,4.1,6.4C84.1,65.7,84.6,68.3,84.6,71.2z M75.2,71.2
		c0-1.9-0.3-3.7-0.8-5.3c-0.5-1.6-1.2-2.9-2.2-4c-0.9-1.1-2.1-1.9-3.5-2.5s-2.9-0.9-4.7-0.9c-1.8,0-3.3,0.3-4.7,0.9
		c-1.4,0.6-2.5,1.4-3.5,2.5c-0.9,1.1-1.7,2.4-2.2,4s-0.8,3.3-0.8,5.3s0.3,3.7,0.8,5.3s1.2,2.9,2.2,4c0.9,1.1,2.1,1.9,3.5,2.5
		c1.4,0.6,3,0.9,4.7,0.9c1.7,0,3.3-0.3,4.7-0.9c1.4-0.6,2.5-1.4,3.5-2.5c0.9-1.1,1.7-2.4,2.2-4C75,74.9,75.2,73.1,75.2,71.2z"/>
	<path class="st1" d="M126.2,90.3c-2.3,0.7-4.7,1-7.2,1c-3.2,0-6.2-0.5-8.9-1.5c-2.7-1-4.9-2.4-6.8-4.2c-1.9-1.8-3.4-3.9-4.4-6.4
		s-1.5-5.1-1.5-8s0.5-5.6,1.5-8.1s2.4-4.6,4.2-6.4c1.8-1.8,4-3.2,6.6-4.2s5.4-1.5,8.6-1.5c1.6,0,3.2,0.1,4.6,0.4s2.8,0.6,4,1.1
		s2.3,1,3.3,1.7c1,0.6,1.9,1.4,2.7,2.1l-2.6,4c-0.4,0.6-1,1-1.6,1.2c-0.7,0.1-1.4,0-2.1-0.5c-0.7-0.4-1.4-0.8-2-1.1s-1.3-0.6-2-0.8
		c-0.7-0.2-1.4-0.3-2.1-0.4s-1.6-0.1-2.5-0.1c-1.7,0-3.3,0.3-4.6,0.9c-1.4,0.6-2.5,1.5-3.5,2.6s-1.7,2.4-2.2,4
		c-0.5,1.5-0.8,3.3-0.8,5.1c0,2.1,0.3,3.9,0.9,5.6c0.6,1.6,1.4,3,2.4,4.1c1.1,1.1,2.3,2,3.8,2.6s3.1,0.9,4.9,0.9
		c1.1,0,2.1-0.1,3-0.3c0.9-0.2,1.8-0.5,2.6-0.9v-6h-3.9c-0.6,0-1-0.2-1.4-0.5c-0.3-0.3-0.5-0.7-0.5-1.2v-5h14v16.6
		C130.6,88.6,128.5,89.6,126.2,90.3z"/>
	<path class="st1" d="M187.2,71.2c0,2.8-0.5,5.5-1.5,7.9c-1,2.5-2.4,4.6-4.1,6.4s-3.9,3.2-6.4,4.3s-5.3,1.5-8.4,1.5
		c-3.1,0-5.9-0.5-8.4-1.5s-4.7-2.4-6.5-4.3s-3.2-3.9-4.2-6.4s-1.5-5.1-1.5-7.9s0.5-5.5,1.5-7.9c1-2.5,2.4-4.6,4.2-6.4s4-3.2,6.5-4.2
		s5.3-1.5,8.4-1.5c3.1,0,5.9,0.5,8.4,1.6c2.5,1,4.7,2.5,6.4,4.3c1.8,1.8,3.2,3.9,4.1,6.4C186.7,65.7,187.2,68.3,187.2,71.2z
		 M177.8,71.2c0-1.9-0.3-3.7-0.8-5.3c-0.5-1.6-1.2-2.9-2.2-4c-0.9-1.1-2.1-1.9-3.5-2.5s-2.9-0.9-4.7-0.9s-3.3,0.3-4.7,0.9
		s-2.5,1.4-3.5,2.5c-0.9,1.1-1.7,2.4-2.2,4s-0.8,3.3-0.8,5.3s0.3,3.7,0.8,5.3s1.2,2.9,2.2,4c0.9,1.1,2.1,1.9,3.5,2.5s3,0.9,4.7,0.9
		s3.3-0.3,4.7-0.9s2.5-1.4,3.5-2.5c0.9-1.1,1.7-2.4,2.2-4C177.6,74.9,177.8,73.1,177.8,71.2z"/>
	<path class="st1" d="M224.1,59.5c-0.3,0.4-0.6,0.8-0.9,1c-0.3,0.2-0.7,0.3-1.1,0.3c-0.4,0-0.9-0.1-1.3-0.4c-0.5-0.3-1-0.6-1.6-0.9
		s-1.3-0.6-2.1-0.9s-1.7-0.4-2.6-0.4c-1.7,0-3,0.4-3.8,1.1s-1.3,1.7-1.3,3c0,0.8,0.3,1.5,0.8,2s1.2,1,2,1.4s1.8,0.7,2.8,1
		s2.1,0.7,3.2,1.1c1.1,0.4,2.2,0.8,3.2,1.4s2,1.2,2.8,2s1.5,1.8,2,3s0.8,2.6,0.8,4.2c0,1.8-0.3,3.5-0.9,5.1s-1.5,3-2.7,4.1
		c-1.2,1.2-2.7,2.1-4.4,2.8s-3.8,1-6,1c-1.2,0-2.5-0.1-3.7-0.4c-1.3-0.3-2.5-0.6-3.7-1.1s-2.3-1-3.4-1.6s-2-1.3-2.7-2.1l2.7-4.3
		c0.2-0.3,0.5-0.6,0.9-0.8s0.7-0.3,1.1-0.3c0.5,0,1.1,0.2,1.6,0.5s1.2,0.7,1.9,1.1s1.5,0.8,2.4,1.1c0.9,0.3,2,0.5,3.2,0.5
		c1.7,0,2.9-0.4,3.9-1.1c0.9-0.7,1.4-1.9,1.4-3.5c0-0.9-0.3-1.7-0.8-2.2c-0.5-0.6-1.2-1.1-2-1.4c-0.8-0.4-1.8-0.7-2.8-1
		s-2.1-0.6-3.2-1c-1.1-0.4-2.2-0.8-3.2-1.3s-2-1.2-2.8-2s-1.5-1.9-2-3.1c-0.5-1.3-0.8-2.8-0.8-4.6c0-1.5,0.3-2.9,0.9-4.3
		c0.6-1.4,1.5-2.7,2.6-3.8c1.2-1.1,2.6-2,4.2-2.6c1.7-0.7,3.6-1,5.8-1c1.2,0,2.4,0.1,3.5,0.3c1.1,0.2,2.2,0.5,3.3,0.8s2,0.8,2.9,1.3
		s1.7,1.1,2.4,1.7L224.1,59.5z"/>
</g>
<g class="st0">
	<path class="st1" d="M251.1,83.6h14.6v7.3H242V51.5h9.1L251.1,83.6L251.1,83.6z"/>
</g>
<g class="st0">
	<path class="st1" d="M317.8,71.2c0,2.8-0.5,5.5-1.5,7.9s-2.4,4.6-4.1,6.4s-3.9,3.2-6.4,4.3c-2.5,1-5.3,1.5-8.4,1.5
		s-5.9-0.5-8.4-1.5s-4.7-2.4-6.5-4.3c-1.8-1.8-3.2-3.9-4.2-6.4s-1.5-5.1-1.5-7.9s0.5-5.5,1.5-7.9c1-2.5,2.4-4.6,4.2-6.4
		c1.8-1.8,4-3.2,6.5-4.2s5.3-1.5,8.4-1.5s5.9,0.5,8.4,1.6c2.5,1,4.7,2.5,6.4,4.3c1.8,1.8,3.2,3.9,4.1,6.4S317.8,68.3,317.8,71.2z
		 M308.4,71.2c0-1.9-0.3-3.7-0.8-5.3c-0.5-1.6-1.2-2.9-2.2-4c-0.9-1.1-2.1-1.9-3.5-2.5s-2.9-0.9-4.7-0.9c-1.8,0-3.3,0.3-4.7,0.9
		c-1.4,0.6-2.5,1.4-3.5,2.5c-0.9,1.1-1.7,2.4-2.2,4s-0.8,3.3-0.8,5.3s0.3,3.7,0.8,5.3c0.5,1.6,1.2,2.9,2.2,4
		c0.9,1.1,2.1,1.9,3.5,2.5s3,0.9,4.7,0.9s3.3-0.3,4.7-0.9c1.4-0.6,2.5-1.4,3.5-2.5c0.9-1.1,1.7-2.4,2.2-4S308.4,73.1,308.4,71.2z"/>
</g>
<g class="st0">
	<path class="st1" d="M327,51.5h7.4c0.8,0,1.4,0.2,1.9,0.6s0.9,0.8,1.1,1.4l7.6,21.1c0.4,0.9,0.7,1.9,1.1,3s0.7,2.2,1,3.4
		c0.3-1.2,0.5-2.3,0.9-3.4s0.7-2.1,1-3l7.6-21.1c0.2-0.5,0.6-1,1.1-1.4s1.1-0.6,1.9-0.6h7.4l-15.8,39.4h-8.3L327,51.5z"/>
</g>
<g class="st0">
	<path class="st1" d="M400.3,59.5c-0.3,0.4-0.6,0.8-0.9,1s-0.7,0.3-1.1,0.3s-0.9-0.1-1.3-0.4c-0.5-0.3-1-0.6-1.6-0.9
		s-1.3-0.6-2.1-0.9c-0.8-0.3-1.7-0.4-2.6-0.4c-1.7,0-3,0.4-3.8,1.1s-1.3,1.7-1.3,3c0,0.8,0.3,1.5,0.8,2s1.2,1,2,1.4s1.8,0.7,2.8,1
		c1.1,0.3,2.1,0.7,3.2,1.1s2.2,0.8,3.2,1.4s2,1.2,2.8,2s1.5,1.8,2,3s0.8,2.6,0.8,4.2c0,1.8-0.3,3.5-0.9,5.1s-1.5,3-2.7,4.1
		c-1.2,1.2-2.7,2.1-4.4,2.8s-3.8,1-6,1c-1.2,0-2.5-0.1-3.7-0.4c-1.3-0.3-2.5-0.6-3.7-1.1s-2.3-1-3.4-1.6s-2-1.3-2.7-2.1l2.7-4.3
		c0.2-0.3,0.5-0.6,0.9-0.8s0.7-0.3,1.1-0.3c0.5,0,1.1,0.2,1.6,0.5s1.2,0.7,1.9,1.1c0.7,0.4,1.5,0.8,2.4,1.1c0.9,0.3,2,0.5,3.2,0.5
		c1.7,0,2.9-0.4,3.9-1.1c0.9-0.7,1.4-1.9,1.4-3.5c0-0.9-0.3-1.7-0.8-2.2c-0.5-0.6-1.2-1.1-2-1.4c-0.8-0.4-1.8-0.7-2.8-1
		s-2.1-0.6-3.2-1s-2.2-0.8-3.2-1.3s-2-1.2-2.8-2s-1.5-1.9-2-3.1c-0.5-1.3-0.8-2.8-0.8-4.6c0-1.5,0.3-2.9,0.9-4.3s1.5-2.7,2.6-3.8
		c1.2-1.1,2.6-2,4.2-2.6c1.7-0.7,3.6-1,5.8-1c1.2,0,2.4,0.1,3.5,0.3c1.1,0.2,2.2,0.5,3.3,0.8s2,0.8,2.9,1.3s1.7,1.1,2.4,1.7
		L400.3,59.5z"/>
	<path class="st1" d="M427.4,67.4h1.5c1.4,0,2.3-0.4,2.9-1.3l8.9-12.9c0.5-0.7,1.1-1.2,1.7-1.4c0.6-0.3,1.4-0.4,2.3-0.4h7.9
		l-11.7,15.9c-0.8,1.1-1.7,1.9-2.7,2.4c0.7,0.3,1.3,0.6,1.9,1.1s1.1,1,1.6,1.8l11.9,18.3h-8.2c-0.5,0-1,0-1.3-0.1
		c-0.4-0.1-0.7-0.2-1-0.3c-0.3-0.1-0.5-0.3-0.7-0.5s-0.4-0.4-0.6-0.7l-8.9-13.7c-0.3-0.5-0.7-0.9-1.2-1.1s-1.2-0.3-2-0.3h-2.2V91
		h-9.3V51.5h9.1v15.9H427.4z"/>
</g>
<g class="st0">
	<path class="st1" d="M501.5,90.9h-7.1c-0.8,0-1.4-0.2-1.9-0.6s-0.9-0.8-1.1-1.4l-2.3-6.9h-15l-2.3,6.9c-0.2,0.5-0.6,1-1.1,1.4
		s-1.1,0.6-1.9,0.6h-7.1l15.2-39.4h9.4L501.5,90.9z M476.2,75.8H487L483.4,65c-0.3-0.7-0.6-1.5-0.9-2.4s-0.6-1.9-0.9-3
		c-0.3,1.1-0.6,2.1-0.9,3.1c-0.3,0.9-0.6,1.7-0.9,2.4L476.2,75.8z"/>
</g>
</svg>
